<?xml version="1.0" encoding="utf-8"?>
<!-- Generator: Adobe Illustrator 21.1.0, SVG Export Plug-In . SVG Version: 6.00 Build 0)  -->
<svg version="1.1" id="artwork" xmlns="http://www.w3.org/2000/svg" xmlns:xlink="http://www.w3.org/1999/xlink" x="0px" y="0px"
	 viewBox="0 0 138.7 43.2" style="enable-background:new 0 0 138.7 43.2;" xml:space="preserve">
<style type="text/css">
	.st0{fill:#A7A6A6;}
	.st1{fill:#FFFFFF;}
	.st2{fill:#5BC9F4;}
	.st3{fill:url(#SVGID_1_);}
	.st4{fill:url(#SVGID_2_);}
	.st5{fill:url(#SVGID_3_);}
	.st6{fill:#FFFFFF;stroke:#FFFFFF;stroke-width:0.2;stroke-miterlimit:10;}
</style>
<g>
	<g>
		<path d="M131.8,41.6H6.8c-2.8,0-5-2.2-5-5v-30c0-2.8,2.2-5,5-5h125c2.8,0,5,2.2,5,5v30C136.8,39.3,134.6,41.6,131.8,41.6z"/>
	</g>
	<g>
		<g>
			<path class="st0" d="M131.8,2.4c2.3,0,4.2,1.9,4.2,4.2v30c0,2.3-1.9,4.2-4.2,4.2H6.8c-2.3,0-4.2-1.9-4.2-4.2v-30
				c0-2.3,1.9-4.2,4.2-4.2H131.8 M131.8,1.6H6.8c-2.8,0-5,2.2-5,5v30c0,2.8,2.2,5,5,5h125c2.8,0,5-2.2,5-5v-30
				C136.8,3.9,134.6,1.6,131.8,1.6L131.8,1.6z"/>
		</g>
	</g>
	<path class="st1" d="M69.9,23.4c-2.4,0-4.3,1.8-4.3,4.3c0,2.4,1.9,4.3,4.3,4.3s4.3-1.8,4.3-4.3C74.2,25.1,72.3,23.4,69.9,23.4z
		 M69.9,30.2c-1.3,0-2.4-1.1-2.4-2.6s1.1-2.6,2.4-2.6s2.4,1,2.4,2.6C72.3,29.1,71.2,30.2,69.9,30.2z M60.6,23.4
		c-2.4,0-4.3,1.8-4.3,4.3c0,2.4,1.9,4.3,4.3,4.3s4.3-1.8,4.3-4.3C64.9,25.1,63,23.4,60.6,23.4z M60.6,30.2c-1.3,0-2.4-1.1-2.4-2.6
		s1.1-2.6,2.4-2.6s2.4,1,2.4,2.6C63,29.1,61.9,30.2,60.6,30.2z M49.5,24.7v1.8h4.3c-0.1,1-0.5,1.8-1,2.3c-0.6,0.6-1.6,1.3-3.3,1.3
		c-2.7,0-4.7-2.1-4.7-4.8s2.1-4.8,4.7-4.8c1.4,0,2.5,0.6,3.3,1.3l1.3-1.3c-1.1-1-2.5-1.8-4.5-1.8c-3.6,0-6.7,3-6.7,6.6
		s3.1,6.6,6.7,6.6c2,0,3.4-0.6,4.6-1.9c1.2-1.2,1.6-2.9,1.6-4.2c0-0.4,0-0.8-0.1-1.1C55.7,24.7,49.5,24.7,49.5,24.7z M94.9,26.1
		c-0.4-1-1.4-2.7-3.6-2.7s-4,1.7-4,4.3c0,2.4,1.8,4.3,4.2,4.3c1.9,0,3.1-1.2,3.5-1.9l-1.4-1c-0.5,0.7-1.1,1.2-2.1,1.2
		s-1.6-0.4-2.1-1.3l5.7-2.4L94.9,26.1z M89.1,27.5c0-1.6,1.3-2.5,2.2-2.5c0.7,0,1.4,0.4,1.6,0.9L89.1,27.5z M84.4,31.6h1.9V19.1
		h-1.9V31.6z M81.4,24.3L81.4,24.3c-0.5-0.5-1.3-1-2.3-1c-2.1,0-4.1,1.9-4.1,4.3c0,2.4,1.9,4.2,4.1,4.2c1,0,1.8-0.5,2.2-1h0.1v0.6
		c0,1.6-0.9,2.5-2.3,2.5c-1.1,0-1.9-0.8-2.1-1.5l-1.6,0.7c0.5,1.1,1.7,2.5,3.8,2.5c2.2,0,4-1.3,4-4.4v-7.6h-1.8
		C81.4,23.6,81.4,24.3,81.4,24.3z M79.2,30.2c-1.3,0-2.4-1.1-2.4-2.6s1.1-2.6,2.4-2.6s2.3,1.1,2.3,2.6
		C81.5,29.1,80.5,30.2,79.2,30.2z M103.6,19.1h-4.5v12.5h1.9v-4.7h2.6c2.1,0,4.1-1.5,4.1-3.9S105.7,19.1,103.6,19.1z M103.7,25.1
		H101v-4.3h2.7c1.4,0,2.2,1.2,2.2,2.1C105.8,24,105,25.1,103.7,25.1z M115.2,23.3c-1.4,0-2.8,0.6-3.3,1.9l1.7,0.7
		c0.4-0.7,1-0.9,1.7-0.9c1,0,1.9,0.6,2,1.6v0.1c-0.3-0.2-1.1-0.5-1.9-0.5c-1.8,0-3.6,1-3.6,2.8c0,1.7,1.5,2.8,3.1,2.8
		c1.3,0,1.9-0.6,2.4-1.2h0.1v1h1.8v-4.8C119,24.6,117.3,23.3,115.2,23.3z M115,30.2c-0.6,0-1.5-0.3-1.5-1.1c0-1,1.1-1.3,2-1.3
		c0.8,0,1.2,0.2,1.7,0.4C117,29.4,116,30.2,115,30.2z M125.5,23.6l-2.1,5.4h-0.1l-2.2-5.4h-2l3.3,7.6l-1.9,4.2h1.9l5.1-11.8H125.5z
		 M108.7,31.6h1.9V19.1h-1.9V31.6z"/>
	<g>
		<g>
			<g>
				<path class="st2" d="M12.2,9.1c-0.3,0.4-0.4,0.8-0.4,1.5v22c0,0.6,0.2,1.1,0.5,1.4l0.1,0.1l12.4-12.4v-0.1v-0.1L12.2,9.1
					L12.2,9.1z"/>
				
					<linearGradient id="SVGID_1_" gradientUnits="userSpaceOnUse" x1="32.9221" y1="-14.3667" x2="8.7453" y2="-14.3667" gradientTransform="matrix(1 0 0 1 0 36)">
					<stop  offset="0" style="stop-color:#FEE000"/>
					<stop  offset="0.1941" style="stop-color:#FCCF0B"/>
					<stop  offset="0.5469" style="stop-color:#FAB318"/>
					<stop  offset="0.8279" style="stop-color:#F9A21B"/>
					<stop  offset="1" style="stop-color:#F99B1C"/>
				</linearGradient>
				<path class="st3" d="M28.8,25.9l-4.1-4.1v-0.2v-0.1l4.1-4.1l0.1,0.1l4.9,2.8c1.4,0.8,1.4,2.1,0,2.9L28.8,25.9L28.8,25.9z"/>
				
					<linearGradient id="SVGID_2_" gradientUnits="userSpaceOnUse" x1="26.6441" y1="-12.1275" x2="3.9045" y2="10.612" gradientTransform="matrix(1 0 0 1 0 36)">
					<stop  offset="0" style="stop-color:#EF4547"/>
					<stop  offset="1" style="stop-color:#C6186D"/>
				</linearGradient>
				<path class="st4" d="M28.9,25.8l-4.2-4.2L12.2,34.1c0.5,0.5,1.2,0.5,2.1,0.1L28.9,25.8"/>
				
					<linearGradient id="SVGID_3_" gradientUnits="userSpaceOnUse" x1="3.7782" y1="-39.5218" x2="22.3444" y2="-20.9556" gradientTransform="matrix(1 0 0 1 0 36)">
					<stop  offset="0" style="stop-color:#279E6F"/>
					<stop  offset="0.3168" style="stop-color:#4DAB6D"/>
					<stop  offset="0.7398" style="stop-color:#6ABA6A"/>
					<stop  offset="1" style="stop-color:#74C169"/>
				</linearGradient>
				<path class="st5" d="M28.9,17.4L14.3,9.1c-0.9-0.5-1.6-0.4-2.1,0.1l12.5,12.4L28.9,17.4z"/>
			</g>
		</g>
	</g>
</g>
<g>
	<path class="st6" d="M44.8,14.7c-0.4,0-0.8-0.1-1.1-0.4c-0.3-0.2-0.5-0.6-0.7-1l0.7-0.3c0.2,0.6,0.5,0.9,1.1,0.9
		c0.4,0,0.6-0.1,0.8-0.3c0.2-0.2,0.3-0.5,0.3-0.9V8.6h0.8v4.1c0,0.7-0.2,1.2-0.5,1.5C45.8,14.6,45.4,14.7,44.8,14.7z"/>
	<path class="st6" d="M51.5,9.3h-2.7v1.9h2.5v0.7h-2.5v1.9h2.7v0.8H48v-6h3.5V9.3z"/>
	<path class="st6" d="M54.8,14.6H54V9.3h-1.7V8.6h4.1v0.7h-1.6V14.6z"/>
	<path class="st6" d="M57.1,14.6v-0.8l3.2-4.5h-3.1V8.6h4v0.8L58,13.9h3.2v0.7H57.1z"/>
	<path class="st6" d="M64.3,14.6h-0.8V9.3h-1.7V8.6h4.1v0.7h-1.7L64.3,14.6L64.3,14.6z"/>
	<path class="st6" d="M69,14.6v-6h2.2c0.5,0,0.9,0.2,1.2,0.5c0.3,0.3,0.5,0.7,0.5,1.2c0,0.3-0.1,0.5-0.2,0.8
		c-0.1,0.2-0.3,0.4-0.6,0.5l0,0c0.3,0.1,0.5,0.3,0.7,0.5s0.3,0.5,0.3,0.9c0,0.5-0.2,0.9-0.5,1.2c-0.4,0.2-0.8,0.4-1.3,0.4H69z
		 M69.8,11.2h1.4c0.3,0,0.5-0.1,0.7-0.3c0.2-0.2,0.3-0.4,0.3-0.6s-0.1-0.4-0.3-0.6c-0.2-0.2-0.4-0.3-0.7-0.3h-1.4V11.2z M69.8,13.9
		h1.6c0.3,0,0.5-0.1,0.7-0.3c0.2-0.2,0.3-0.4,0.3-0.7c0-0.2-0.1-0.5-0.3-0.7c-0.2-0.2-0.4-0.3-0.7-0.3h-1.6V13.9z"/>
	<path class="st6" d="M77.7,9.3H75v1.9h2.5v0.7H75v1.9h2.7v0.8h-3.5v-6h3.5V9.3z"/>
	<path class="st6" d="M78.9,14.6v-6h0.8v6H78.9z"/>
</g>
</svg>
